# xmcd CD database file
# Copyright (C) 1996 Ti Kan
#
# Track frame offsets:
# 	150
# 	16189
# 	32773
# 	46194
# 	62952
# 	78269
# 	91434
# 	110302
# 	126909
# 	142217
# 	152162
# 	172815
# 	188803
# 	201546
# 	213013
# 	221928
# 	239097
#
# Disc length: 3405 seconds
#
# Revision: 1
# Processed by: cddbd v1.4b41PL1 Copyright (c) Steve Scherf et al.
# Submitted via: DiscPlay 3.4.1
#
DISCID=f70d4b11
DTITLE=Demis Roussos - Demis Roussos (Disk 2)
DYEAR=1900
DGENRE=
TTITLE0=We shall dance
TTITLE1=Shadows
TTITLE2=Perdoname
TTITLE3=My Oonly fascination
TTITLE4=Lovely lady of arcadia
TTITLE5=Say you love me
TTITLE6=Lost in a Dream
TTITLE7=Forever and Ever
TTITLE8=No Way out
TTITLE9=End of the line
TTITLE10=Fire and Ice
TTITLE11=Let it be me
TTITLE12=I know I'll Do It again
TTITLE13=Can't say How much I love you
TTITLE14=Without you
TTITLE15=My blue ship's A-Sailin'
TTITLE16=Velvet morning
EXTD=
EXTT0=
EXTT1=
EXTT2=
EXTT3=
EXTT4=
EXTT5=
EXTT6=
EXTT7=
EXTT8=
EXTT9=
EXTT10=
EXTT11=
EXTT12=
EXTT13=
EXTT14=
EXTT15=
EXTT16=
PLAYORDER=
